<svg width="400" height="120" viewBox="0 0 400 120" fill="none" xmlns="http://www.w3.org/2000/svg">
<path d="M199.942 86.2539C203.039 83.2451 205.96 80.2362 209.234 77.4929C212.951 74.3956 216.756 71.1212 220.827 68.8204C228.968 64.1301 237.641 63.6876 245.605 68.9973C254.72 74.9265 259.676 84.3955 258.703 95.8999C258.172 102.449 254.632 108.289 250.296 112.979C244.721 118.909 237.818 120.325 230.384 119.705C222.862 119.086 216.491 115.546 210.915 110.236C207.729 107.227 204.632 104.041 201.535 100.856C201.092 100.413 200.738 99.7052 200.296 99.1742C197.022 102.449 194.101 105.546 191.004 108.466C186.402 112.891 181.623 116.873 175.606 118.643C170.915 119.971 166.137 120.325 161.358 119.44C154.013 118.112 148.615 113.776 145.429 106.342C141.801 97.9353 141.535 89.3513 144.898 80.7672C149.234 69.7938 159.057 64.1301 170.385 65.723C175.871 66.431 180.561 68.9088 184.809 72.5372C189.676 76.6964 194.367 81.1212 199.057 85.4575C199.322 85.6345 199.676 85.8999 199.942 86.2539ZM204.632 92.2716C208.968 97.3158 213.305 102.006 218.26 105.9C221.712 108.643 225.517 110.325 229.588 111.033C241.269 113.156 249.853 103.953 248.791 90.5017C248.083 82.4486 243.57 75.9885 237.375 74.3956C233.57 73.4221 229.765 73.7761 226.136 75.369C217.906 79.0858 211.446 85.8114 204.632 92.2716ZM195.429 92.0061C189.942 87.4044 184.809 82.9796 179.588 78.8203C177.995 77.5814 176.225 76.5194 174.367 75.8115C169.588 73.7761 164.721 73.1566 159.942 75.723C153.57 79.0858 150.208 87.4929 151.447 96.3424C152.508 103.864 157.287 109.617 163.659 110.856C168.438 111.829 173.039 110.856 177.464 108.466C184.367 104.572 189.588 98.4663 195.429 92.0061Z" fill="black"/>
<path d="M44.6328 40.7686C45.6063 41.034 45.0753 40.9455 44.6328 40.7686Z" fill="#00818D"/>
<path d="M93.2203 67.4048C89.9459 60.6792 84.1052 55.0155 77.7336 51.2102C77.5566 51.1217 77.3796 51.0332 77.2026 50.9447C78.7955 40.3253 78.1761 29.0864 72.6009 19.6174C61.8045 1.03342 36.9373 -2.2409 17.6453 1.21041C12.3356 2.18386 7.29139 3.77677 2.42415 6.07765C0.65425 6.9626 -0.496188 9.70595 0.211774 11.5644C4.28255 22.5378 13.663 30.9448 22.6896 38.0244C25.0789 39.8828 27.5568 41.6527 30.0347 43.4226C26.2294 44.7501 22.6011 46.697 19.3267 49.3518C14.017 53.5111 10.3002 59.1748 7.73387 65.3695C6.22945 69.0863 4.81352 73.334 4.81352 77.3163C4.81352 81.2986 7.55688 82.626 10.9197 84.0419C16.1409 86.2543 21.6276 87.5818 27.2913 88.0242C36.7603 88.7322 46.2293 86.3428 54.4594 81.7411C61.362 77.9358 67.4681 72.6261 71.9814 66.2544C73.2203 64.4845 74.1938 62.5376 74.9017 60.6792C79.1495 63.3341 89.1495 69.3517 88.707 84.0419C88.4415 93.5994 81.6274 112.537 58.7956 112.537C54.4594 112.537 19.3267 112.537 14.9905 112.537C12.4241 112.537 10.8312 109.883 10.9197 107.582C11.0082 105.458 9.85775 97.2277 9.76926 95.0154C9.68076 90.5906 7.99935 88.2897 6.31794 88.9977C4.10556 89.7941 4.63654 109.086 4.63654 110.768C4.54804 114.573 4.28255 119.44 9.59227 119.794C13.0436 119.971 16.5834 119.794 20.1232 119.794C32.247 119.794 44.4594 119.794 56.5832 119.794C62.3354 119.794 68.2646 119.617 73.7513 117.67C83.3973 114.307 89.8574 106.962 93.6627 97.6702C97.5565 87.7587 97.9105 77.0508 93.2203 67.4048ZM7.55688 10.5024C71.0965 -9.85149 68.2646 43.9536 68.0876 46.52C68.0876 46.697 68.0876 46.874 67.9991 47.0509C60.7425 44.0421 53.0434 42.0067 45.3443 41.7412C44.9904 41.6527 44.6364 41.5642 44.2824 41.5642C44.1939 41.5642 43.6629 41.3872 43.4859 41.2988C43.5744 41.2988 43.5744 41.2988 43.4859 41.2988C41.9815 40.5023 12.6896 26.52 7.55688 10.5024ZM65.6982 58.2013C65.1673 59.2633 44.9904 93.7764 9.23829 78.4667C17.2029 37.228 59.0611 50.1483 66.3177 56.4314C66.3177 56.7854 65.7867 58.1128 65.6982 58.2013ZM76.0522 61.8296C75.8752 61.6527 75.6982 61.4757 76.0522 61.8296Z" fill="#00818D"/>
<path d="M131.63 108.114L130.48 109.353C128.179 111.831 124.816 113.778 121.365 114.486C117.117 115.371 116.143 108.822 116.055 106.433C115.613 97.2295 116.143 87.849 116.232 78.557C116.232 75.1942 116.32 71.7429 116.409 68.3801C116.586 68.2031 116.763 68.1146 116.94 67.9376C120.48 65.1058 123.843 62.1854 126.851 58.8226C136.851 47.7607 145.612 32.1855 142.692 16.7874C140.922 7.22989 132.427 -1.79662 122.073 0.41576C113.046 2.36265 108.975 11.5662 108.267 19.8847C107.559 27.9378 108.09 36.1678 108.09 44.2209C108.002 52.6279 108.002 61.035 107.913 69.3535C107.117 69.973 106.321 70.5925 105.436 71.2119C101.453 73.9553 102.25 78.9995 105.79 76.6101C106.498 76.1677 107.117 75.6367 107.825 75.1942C107.825 75.9907 107.825 76.8756 107.825 77.6721C107.736 84.0437 107.736 90.4154 107.648 96.787C107.648 101.743 106.851 107.583 108.621 112.362C110.745 118.203 116.232 120.946 122.161 119.707C127.471 118.557 132.161 114.575 135.789 110.769C140.126 106.168 135.878 103.601 131.63 108.114ZM122.161 10.6812C127.825 6.43343 132.869 14.6635 133.577 19.4422C135.258 31.1236 128.444 49.3536 121.365 57.3182C119.86 58.9996 118.356 60.504 116.763 62.0084C117.205 50.4156 117.736 38.8227 117.736 27.2298C117.736 21.6546 117.117 14.4865 122.161 10.6812Z" fill="black"/>
<path d="M336.318 113.599C336.229 111.21 336.672 73.688 336.672 73.688C336.583 72.4491 336.318 71.2102 335.875 69.9712C335.61 69.0863 333.928 69.1748 333.486 69.3517C331.008 70.6792 328.884 72.2721 327.203 74.042C323.574 77.8473 320.831 81.9181 318.796 85.9889C312.778 98.2897 312.158 113.865 311.981 115.458C311.45 120.148 303.751 122.98 302.778 113.688C302.512 111.564 303.043 75.8119 303.043 73.2455C302.955 71.8296 302.689 70.3252 302.158 68.9093C301.893 68.1128 300.3 68.1128 299.858 68.2898C297.38 69.6172 295.167 71.2102 293.486 73.0686C288.884 78.1128 285.433 83.511 283.132 89.2632C281.185 94.1304 279.858 99.0861 279.15 104.219C278.973 105.546 277.645 114.838 276.495 118.467C276.495 119.706 269.327 121.564 268.442 117.493C268.088 116.077 267.026 72.1836 267.38 68.4668C267.734 67.6703 270.566 66.5199 272.424 66.5199C274.105 66.5199 274.194 66.6969 275.521 66.9624C276.318 67.1394 277.114 67.9358 277.203 68.3783C277.38 69.3518 277.468 70.3252 277.468 71.2986C277.557 73.0686 277.557 86.1658 277.557 86.1658L278.884 86.4313C279.858 84.3074 280.92 82.3605 281.982 80.5021C282.778 79.1747 283.84 77.6703 285.256 75.9004C286.672 74.1305 288.353 72.3606 290.212 70.6792C292.07 68.9978 294.194 67.5818 296.495 66.4314C298.707 65.3695 301.008 64.75 303.397 64.75C305.344 64.75 306.937 65.5465 308.442 67.2279C309.592 68.3783 310.566 69.6172 311.185 70.9447C312.247 73.334 312.866 75.7234 312.955 78.2013L313.22 85.6349L316.495 80.4137C317.291 79.1747 322.778 72.8031 324.548 71.2986C326.406 69.7942 328.353 68.4668 330.565 67.4934C332.689 66.5199 334.902 65.9889 337.203 65.9889C339.68 65.9889 340.742 66.7854 343.397 68.3783C344.813 69.4402 345.875 70.6792 346.495 72.0951C347.203 73.511 347.645 74.9269 347.91 76.4314C348.087 77.9358 348.264 79.4402 348.353 80.8561C348.441 83.334 347.468 101.387 347.38 104.13C347.291 106.785 347.468 109.44 347.38 113.865C347.114 123.334 336.583 120.237 336.318 113.599Z" fill="black"/>
</svg>
